<?xml version="1.0" encoding="iso-8859-1"?>
<!-- Uploaded to: SVG Repo, www.svgrepo.com, Generator: SVG Repo Mixer Tools -->
<svg height="800px" width="800px" version="1.1" id="Layer_1" xmlns="http://www.w3.org/2000/svg" xmlns:xlink="http://www.w3.org/1999/xlink" 
	 viewBox="0 0 512 512" xml:space="preserve">
<g>
	<g>
		<path style="fill:#EDDE64;" d="M361.931,467.862H150.069c0-19.5,15.81-35.31,35.31-35.31h141.241
			C346.121,432.552,361.931,448.362,361.931,467.862"/>
		<path style="fill:#EDDE64;" d="M256,264.828L256,264.828c-58.5,0-105.931-47.431-105.931-105.931V82.785
			c0-13.656-4.264-26.968-12.2-38.073l-11.723-16.41C117.681,16.455,126.155,0,140.712,0h230.577
			c14.557,0,23.031,16.455,14.566,28.301l-11.723,16.41c-7.936,11.105-12.2,24.417-12.2,38.073v76.111
			C361.931,217.397,314.5,264.828,256,264.828"/>
	</g>
	<g>
		<path style="fill:#ECBA16;" d="M88.276,503.172h335.448v-35.31H88.276V503.172z"/>
		<path style="fill:#ECBA16;" d="M203.034,167.724h105.931V97.103H203.034V167.724z"/>
	</g>
	<path style="fill:#B58A0F;" d="M273.655,141.241h-35.31c-4.882,0-8.828-3.955-8.828-8.828c0-4.873,3.946-8.828,8.828-8.828h35.31
		c4.882,0,8.828,3.955,8.828,8.828C282.483,137.287,278.537,141.241,273.655,141.241"/>
	<g>
		<path style="fill:#EDDE64;" d="M467.862,512H44.138c-4.882,0-8.828-3.955-8.828-8.828c0-4.873,3.946-8.828,8.828-8.828h423.724
			c4.882,0,8.828,3.955,8.828,8.828C476.69,508.045,472.744,512,467.862,512"/>
		<path style="fill:#EDDE64;" d="M291.31,361.931H220.69c-9.71,0-17.655-7.945-17.655-17.655c0-9.71,7.945-17.655,17.655-17.655
			h70.621c9.71,0,17.655,7.945,17.655,17.655C308.966,353.986,301.021,361.931,291.31,361.931"/>
	</g>
	<g>
		<path style="fill:#ECBA16;" d="M277.997,326.621l22.14-71.521c-13.453,6.188-28.363,9.728-44.138,9.728s-30.685-3.54-44.138-9.728
			L234,326.621H277.997z"/>
		<path style="fill:#ECBA16;" d="M232.67,361.931l-20.807,70.621h88.276l-20.807-70.621H232.67z"/>
	</g>
</g>
</svg>